<?xml version="1.0" encoding="utf-8"?>
<!-- Generator: Adobe Illustrator 23.0.1, SVG Export Plug-In . SVG Version: 6.00 Build 0)  -->
<svg version="1.1" id="Layer_1" xmlns="http://www.w3.org/2000/svg" xmlns:xlink="http://www.w3.org/1999/xlink" x="0px" y="0px"
	 viewBox="0 0 1866.67 1400" style="enable-background:new 0 0 1866.67 1400;" xml:space="preserve">
<style type="text/css">
	.st0{fill:url(#SVGID_1_);}
	.st1{fill:url(#SVGID_2_);}
	.st2{fill:url(#SVGID_3_);}
	.st3{opacity:0.7;fill:url(#SVGID_4_);}
	.st4{opacity:0.7;fill:url(#SVGID_5_);}
	.st5{fill:url(#SVGID_6_);}
	.st6{fill:url(#SVGID_7_);}
	.st7{fill:url(#SVGID_8_);}
	.st8{fill:url(#SVGID_9_);}
	.st9{fill:url(#SVGID_10_);}
	.st10{fill:url(#SVGID_11_);}
	.st11{fill:url(#SVGID_12_);}
	.st12{fill:url(#SVGID_13_);}
	.st13{fill:url(#SVGID_14_);}
	.st14{fill:url(#SVGID_15_);}
	.st15{opacity:0.3;fill:#FFFC9B;}
	.st16{fill:#FFFC9B;}
	.st17{fill:url(#SVGID_16_);}
	.st18{fill:url(#SVGID_17_);}
	.st19{fill:url(#SVGID_18_);}
	.st20{fill:url(#SVGID_19_);}
	.st21{fill:url(#SVGID_20_);}
	.st22{fill:url(#SVGID_21_);}
</style>
<g>
	<g>
		<linearGradient id="SVGID_1_" gradientUnits="userSpaceOnUse" x1="941.7229" y1="1124.979" x2="931.0825" y2="387.2231">
			<stop  offset="0" style="stop-color:#00DEFF"/>
			<stop  offset="1" style="stop-color:#00B6FF"/>
		</linearGradient>
		<rect x="0.33" class="st0" width="1866" height="1086.6"/>
		<linearGradient id="SVGID_2_" gradientUnits="userSpaceOnUse" x1="1479.5614" y1="795.0317" x2="1314.7292" y2="537.4811">
			<stop  offset="0" style="stop-color:#00DEFF"/>
			<stop  offset="0.986" style="stop-color:#8CF2FF"/>
		</linearGradient>
		<path class="st1" d="M1866.33,258.2c0,0-116.62-117.63-304.59-37.75c-187.97,79.88-77.17,202.71-153.04,241.25
			c-75.87,38.54-59.01,125.25-155.35,134.88c-96.34,9.63-37.33,74.67-130.06,90.32S1057.33,773,900.33,750
			c-42.15-6.17-69.45,180.55-55,195s400-62,400-62l621-113V258.2z"/>
		<linearGradient id="SVGID_3_" gradientUnits="userSpaceOnUse" x1="180.3055" y1="1097.2402" x2="584.6605" y2="440.4844">
			<stop  offset="0" style="stop-color:#00DEFF"/>
			<stop  offset="0.986" style="stop-color:#8CF2FF"/>
		</linearGradient>
		<path class="st2" d="M0.33,233.06c0,0,98.75-67.86,230.02-26.91c131.27,40.95,122.84,203.52,171.01,225.2
			c48.17,21.68,124.04-9.63,152.94,49.38c28.9,59.01-27.7,124.04,32.52,157.76c60.21,33.72,134.88-38.54,183.05,21.68
			c48.17,60.21,91.53,91.53,186.66,97.55c95.14,6.02,100.43,49.38,100.43,49.38c-77.76,325.87-641.73,84.41-1056.64,0V233.06z"/>
		<linearGradient id="SVGID_4_" gradientUnits="userSpaceOnUse" x1="1443.2316" y1="1076.7224" x2="1324.8951" y2="690.3463">
			<stop  offset="0" style="stop-color:#00DEFF"/>
			<stop  offset="0.986" style="stop-color:#FFFFFF"/>
		</linearGradient>
		<path class="st3" d="M1866.67,460.37c0,0-72.26-73.46-181.85-21.67c-109.59,51.78-36.13,130.06-120.43,180.64
			c-84.3,50.58-130.06-12.04-186.66,38.54c-56.6,50.58-6.02,128.86-102.36,128.86c-96.34,0-158.97-66.24-237.24,0
			S919.64,970.51,834.14,937.99s-41.69,18.55,30.57,57.08c72.26,38.54,1001.97,11.19,1001.97,11.19V460.37z"/>
		<linearGradient id="SVGID_5_" gradientUnits="userSpaceOnUse" x1="373.635" y1="1013.7544" x2="534.0311" y2="643.7744">
			<stop  offset="0" style="stop-color:#00DEFF"/>
			<stop  offset="0.986" style="stop-color:#FFFFFF"/>
		</linearGradient>
		<path class="st4" d="M0.33,456.71c0,0,85.5-60.82,162.58-33.12s39.74,122.84,92.73,144.51c52.99,21.68,137.29-8.43,155.35,44.56
			c18.06,52.99,71.05,79.48,161.37,69.85c90.32-9.63,127.33,30.44,137.29,99.96c9.68,67.53,33.77,83.14,174.68,79.53s130,92,130,92
			s-122.83,36.81-335.99,29.59c-213.16-7.23-678.01-32.9-678.01-32.9V456.71z"/>
		<linearGradient id="SVGID_6_" gradientUnits="userSpaceOnUse" x1="95.3632" y1="821.2631" x2="466.8421" y2="821.2631">
			<stop  offset="0" style="stop-color:#09C676"/>
			<stop  offset="0.986" style="stop-color:#3D799E"/>
		</linearGradient>
		<path class="st5" d="M95.36,879.91c0,0,20.91-36.04,43.25-29.14c22.34,6.9,16.16-29.69,38.97-24.94s9.5-64.16,60.83-63.21
			s17.11,33.27,49.9,37.07c32.79,3.8,36.59-7.6,41.82,1.9c5.23,9.5,8.08,15.1,30.89,19.67c22.81,4.57,25.66-3.51,32.32,8.85
			s16.16,8.55,39.92,13.78c23.76,5.23,31.49,7.6,33.57,16.63C468.91,869.55,95.36,879.91,95.36,879.91z"/>
		<linearGradient id="SVGID_7_" gradientUnits="userSpaceOnUse" x1="470.3295" y1="1176.5093" x2="459.6362" y2="883.5189">
			<stop  offset="0" style="stop-color:#1AAD81"/>
			<stop  offset="1" style="stop-color:#4ADD8C"/>
		</linearGradient>
		<path class="st6" d="M0.33,898.83c0,0,474.5-157.28,933,97.21L748.07,1165.4H0.33V898.83z"/>
		<linearGradient id="SVGID_8_" gradientUnits="userSpaceOnUse" x1="1083.078" y1="882.7944" x2="1866.3335" y2="882.7944">
			<stop  offset="0" style="stop-color:#09C676"/>
			<stop  offset="0.986" style="stop-color:#3D799E"/>
		</linearGradient>
		<path class="st7" d="M1866.33,918.36c0,0-2.67-24.86-23.99-10.2c-21.33,14.66-35.99-102.63-93.3-105.3
			c-57.31-2.67-38.65,55.98-82.64,57.31c-43.98,1.33-34.65-34.65-71.97-9.33c-37.32,25.32-27.99,43.98-85.3,22.66
			c-57.31-21.33-69.31-39.99-86.64-22.66s-30.66,8-78.64,9.33c-47.98,1.33-79.97-12-94.63,0c-14.66,12-77.31,10.66-106.63,13.33
			c-29.32,2.67-59.51,17.15-59.51,17.15l740.6,72.15l42.65-7.39V918.36z"/>
		<linearGradient id="SVGID_9_" gradientUnits="userSpaceOnUse" x1="1293.4084" y1="899.2846" x2="1191.6285" y2="1266.015">
			<stop  offset="0" style="stop-color:#89F174"/>
			<stop  offset="1" style="stop-color:#4ADD8C"/>
		</linearGradient>
		<path class="st8" d="M1866.33,941.17c0,0-79.97-1.02-219.92-26.34c-117.46-21.26-697.08-119.96-1019.64,151.95l262.57,97.3
			l976.98-94.63V941.17z"/>
		<linearGradient id="SVGID_10_" gradientUnits="userSpaceOnUse" x1="1026.3422" y1="1106.5969" x2="1027.3695" y2="961.2226">
			<stop  offset="0" style="stop-color:#1AAD81"/>
			<stop  offset="8.379890e-03" style="stop-color:#E6EA79"/>
			<stop  offset="1" style="stop-color:#FFF2CF"/>
		</linearGradient>
		<path class="st9" d="M1001.66,1081.28l186.25-63.54c0,0-241.85,27.18-254.58-41.26c-8.29-44.58,47.93-69.37,48.28-69.53
			c-7.7,1.57-15.38,3.23-23.05,4.97c-0.73,0.38-120.97,62.56-86.14,119.69C907.35,1088.91,1001.66,1081.28,1001.66,1081.28z"/>
		<linearGradient id="SVGID_11_" gradientUnits="userSpaceOnUse" x1="1285.6866" y1="1411.4003" x2="1323.8827" y2="1119.7223">
			<stop  offset="0" style="stop-color:#1AAD81"/>
			<stop  offset="1" style="stop-color:#4ADD8C"/>
		</linearGradient>
		<path class="st10" d="M1263.88,1005.46c-382.53,55.98-515.82,159.94-515.82,159.94s357.41,183.01,495.6,234.6h224.64
			c174.1-24.46,398.03-71.17,398.03-71.17v-323.6C1866.33,1005.23,1646.41,949.48,1263.88,1005.46z"/>
		<linearGradient id="SVGID_12_" gradientUnits="userSpaceOnUse" x1="1376.6692" y1="1370.7535" x2="1378.5695" y2="1101.8596">
			<stop  offset="0" style="stop-color:#1AAD81"/>
			<stop  offset="8.379890e-03" style="stop-color:#E6EA79"/>
			<stop  offset="1" style="stop-color:#FFF2CF"/>
		</linearGradient>
		<path class="st11" d="M1558.44,1126.75c-39.77-88.71-204.85-114.16-267.9-125.29c-14.28,1.84-11.89,1.84-26.66,4
			c-6.06,0.89-12.06,1.79-17.99,2.7c0.03,0.02,177.93,107.94,101.96,167.91c-75.97,59.98-146.11,50.18-146.11,50.18l-13.84,49.79
			l234.58,49.32C1422.49,1325.35,1610.42,1242.71,1558.44,1126.75z"/>
		<linearGradient id="SVGID_13_" gradientUnits="userSpaceOnUse" x1="1420.9501" y1="1139.6002" x2="1433.6128" y2="1376.3961">
			<stop  offset="0" style="stop-color:#89F174"/>
			<stop  offset="1" style="stop-color:#4ADD8C"/>
		</linearGradient>
		<path class="st12" d="M1506.46,1256.04c-195.93,1.33-337.21-51.98-337.21-51.98c-40.07-1.23-110.65,93.62-174.94,195.94h688.03
			h184v-170.34C1759.98,1237.67,1658.13,1255.01,1506.46,1256.04z"/>
		<linearGradient id="SVGID_14_" gradientUnits="userSpaceOnUse" x1="157.7787" y1="992.4191" x2="584.8098" y2="992.4191">
			<stop  offset="0" style="stop-color:#09C676"/>
			<stop  offset="0.986" style="stop-color:#3D799E"/>
		</linearGradient>
		<path class="st13" d="M157.78,1052.77c0,0,22.65-63.62,60.08-47.32c37.43,16.3,32.39-18.99,63.24-13.64
			c30.85,5.35,30.5-67.6,63.77-59.05c33.27,8.55,25.66,17.58,48.48,24.71c22.81,7.13,22.34-4.75,28.04,12.36
			c5.7,17.11,15.21,10.86,22.81,14.7c7.6,3.84,41.88-18.03,63.24-4.01c21.36,14.02,51.77,1.69,65.08,11.9
			c13.31,10.2,12.28,17.31,12.28,17.31L157.78,1052.77z"/>
		<linearGradient id="SVGID_15_" gradientUnits="userSpaceOnUse" x1="591.0706" y1="1134.0758" x2="474.9938" y2="1552.3207">
			<stop  offset="0" style="stop-color:#89F174"/>
			<stop  offset="1" style="stop-color:#4ADD8C"/>
		</linearGradient>
		<path class="st14" d="M0.38,1400h812.15c98.56-80.13,356.73-195.94,356.73-195.94s-418.52-199.93-651.77-198.6
			c-320.4,1.83-517.15,103.88-517.15,103.88V1400H0.38z"/>
		<g>
			
				<ellipse transform="matrix(0.7071 -0.7071 0.7071 0.7071 94.8479 860.1158)" class="st15" cx="1085.68" cy="315.57" rx="184.86" ry="184.86"/>
			
				<ellipse transform="matrix(0.7071 -0.7071 0.7071 0.7071 94.8479 860.1158)" class="st15" cx="1085.68" cy="315.57" rx="159.57" ry="159.57"/>
			
				<ellipse transform="matrix(0.7071 -0.7071 0.7071 0.7071 94.8479 860.1158)" class="st15" cx="1085.68" cy="315.57" rx="133.07" ry="133.07"/>
			<circle class="st16" cx="1085.68" cy="315.57" r="104.17"/>
		</g>
		<linearGradient id="SVGID_16_" gradientUnits="userSpaceOnUse" x1="894.9255" y1="1470.2136" x2="903.8731" y2="1189.5846">
			<stop  offset="0" style="stop-color:#1AAD81"/>
			<stop  offset="8.379890e-03" style="stop-color:#E6EA79"/>
			<stop  offset="1" style="stop-color:#FFF2CF"/>
		</linearGradient>
		<path class="st17" d="M1069.44,1400c-26.77-130.73,102.75-184.73,119.8-189.28l-19.99-6.66
			c-310.15-36.79-472.81,71.9-558.13,195.94H1069.44z"/>
	</g>
	<linearGradient id="SVGID_17_" gradientUnits="userSpaceOnUse" x1="529.4996" y1="198.762" x2="566.9908" y2="106.095">
		<stop  offset="0" style="stop-color:#00DEFF"/>
		<stop  offset="0.986" style="stop-color:#8CF2FF"/>
	</linearGradient>
	<path id="CLOUD" class="st18" d="M281.1,170.61h519.85c0,0-43.91-39.66-93.49-28.33c-49.58,11.33-58.08-90.65-116.15-84.99
		c-58.08,5.67-7.08,84.99-127.48,66.57c-120.4-18.41-118.98,30.75-118.98,30.75S285.35,147.95,281.1,170.61z"/>
	<linearGradient id="SVGID_18_" gradientUnits="userSpaceOnUse" x1="273.2691" y1="1160.0859" x2="249.0315" y2="1338.3038">
		<stop  offset="0" style="stop-color:#09C676"/>
		<stop  offset="0.986" style="stop-color:#3D799E"/>
	</linearGradient>
	<path class="st19" d="M0,1329.71c0,0,13.62-24.59,26.45-14.97s23.29-46.46,61.78-31.25c38.49,15.21,45.15,12.83,55.13,2.85
		c9.98-9.98,32.32-103.6,74.14-97.43s42.3,32.79,67.01,36.12c24.71,3.33,50.38-32.79,64.16-16.16
		c13.78,16.63-17.01,42.3,22.62,57.03s72.43,27.56,66.25,51.33c-6.18,23.76-11.41,38.02,12.83,48.48
		c24.24,10.46,47.52,11.07,39.92,34.29H0.38L0,1329.71z"/>
	<linearGradient id="SVGID_19_" gradientUnits="userSpaceOnUse" x1="1632.5511" y1="1255.396" x2="1687.0859" y2="1364.4653">
		<stop  offset="0" style="stop-color:#09C676"/>
		<stop  offset="0.986" style="stop-color:#3D799E"/>
	</linearGradient>
	<path class="st20" d="M1813.26,1286.94c0,0-38.49-49.19-56.67-24.59c-18.18,24.59-51.33-14.12-60.95,31.97
		c-9.62,46.09-42.77,23.64-80.2,17.22c-37.43-6.42-57.25,2.47-58.81,29.94c-1.56,27.47-28.87,34.22-28.87,34.22h252.36
		L1813.26,1286.94z"/>
	<linearGradient id="SVGID_20_" gradientUnits="userSpaceOnUse" x1="1486.0563" y1="1297.3279" x2="1866.667" y2="1297.3279">
		<stop  offset="0" style="stop-color:#09C676"/>
		<stop  offset="0.986" style="stop-color:#3D799E"/>
	</linearGradient>
	<path class="st21" d="M1866.67,1204.05c0,0-37.36-28.31-42.71,13.39c-5.35,41.7-28.87,19.25-45.98,62.02
		c-17.11,42.77,4.28,58.81-35.29,60.95c-39.56,2.14-47.05-18.18-56.67,0c-9.62,18.18-65.23-9.62-74.85,12.83
		c-9.62,22.46-48.12,7.49-83.41,22.46s-41.7,24.31-41.7,24.31h380.28L1866.67,1204.05z"/>
	<linearGradient id="SVGID_21_" gradientUnits="userSpaceOnUse" x1="180.8325" y1="1237.8094" x2="113.8226" y2="1440.2651">
		<stop  offset="0" style="stop-color:#09C676"/>
		<stop  offset="0.986" style="stop-color:#3D799E"/>
	</linearGradient>
	<path class="st22" d="M305.9,1400c0,0,4.59-28.58-24.8-18.6c-29.38,9.98-89.26-49.9-99.24-42.77c-9.98,7.13-27.09,27.33-69.86-0.59
		c-42.77-27.92-67.98-80.68-89.82-87.8c-21.84-7.13-21.84-7.13-21.84-7.13V1400H305.9z"/>
</g>
</svg>
